<svg width="339" height="386" viewBox="0 0 339 386" fill="none" xmlns="http://www.w3.org/2000/svg">
<path d="M101.372 100.265C127.853 111.94 165.435 115.314 188.52 94.6568C189.152 94.0969 189.047 93.1121 188.529 92.5046C182.931 86.0787 174.174 82.648 166.352 79.7846C157.008 76.3511 147.821 74.1013 137.81 74.0089C128.581 73.9202 120.414 75.7328 112.179 79.9441C108.051 82.0438 104.109 84.5024 100.238 87.0307C98.5168 88.1664 96.7837 89.3231 95.0715 90.492C93.8697 91.3111 92.2409 91.9957 91.5008 93.2775C91.0641 94.034 91.3827 94.8904 92.0523 95.333C94.9765 97.3576 98.2866 98.5682 101.372 100.265C103.078 101.195 104.616 98.58 102.888 97.6387C99.8032 95.9415 96.493 94.7309 93.5777 92.7395C93.7644 93.4357 93.9512 94.1319 94.1291 94.795C94.6265 93.9334 97.0641 92.8192 98.0273 92.1705C99.6368 91.0824 101.267 90.0065 102.886 88.9516C106.382 86.6835 109.95 84.4849 113.674 82.6001C121.616 78.5559 129.445 76.9404 138.345 77.0637C147.637 77.1888 156.113 79.3088 164.79 82.4412C172.339 85.1468 180.952 88.4383 186.367 94.6466C186.367 93.9182 186.376 93.2229 186.376 92.4945C175.254 102.435 160.177 106.115 145.57 106.311C131.017 106.51 116.209 103.508 102.867 97.6266C101.118 96.8688 99.5806 99.4834 101.372 100.265Z" fill="#DBDBDB"/>
<path d="M96.663 95.165C112.271 92.6049 128.118 91.864 143.916 92.1313C150.717 92.2477 157.484 92.0358 164.286 91.9566C171.393 91.8848 178.736 92.0338 185.479 94.5821C187.298 95.268 188.072 92.3247 186.253 91.6389C179.754 89.2031 172.649 88.8836 165.796 88.9054C158.497 88.9221 151.236 89.2129 143.935 89.0882C127.854 88.8256 111.796 89.6407 95.9135 92.2387C93.9579 92.5666 94.7617 95.4962 96.663 95.165Z" fill="#DBDBDB"/>
<path d="M177.125 94.7747C160.833 98.2286 144.269 102.057 127.498 100.416C125.563 100.223 125.577 103.258 127.512 103.45C144.521 105.117 161.372 101.229 177.896 97.7132C179.813 97.3068 179.03 94.3894 177.125 94.7747Z" fill="#DBDBDB"/>
<path d="M153.014 82.9273C143.453 81.8618 134.068 83.1118 124.628 84.5542C122.697 84.8401 123.501 87.7697 125.411 87.4717C134.631 86.0704 143.738 84.9123 153.041 85.9406C154.973 86.1875 154.937 83.1411 153.014 82.9273Z" fill="#DBDBDB"/>
<path d="M123.054 95.973C118.97 95.5203 114.936 94.5922 110.809 94.5065C109.984 94.4785 109.297 95.2308 109.303 96.0466C109.296 96.8833 110.007 97.5459 110.844 97.5529C114.972 97.6386 119.006 98.5667 123.09 99.0194C123.911 99.1016 124.605 98.2409 124.596 97.4793C124.572 96.5973 123.864 96.0762 123.054 95.973Z" fill="#DBDBDB"/>
<path d="M74.6893 72.6721C103.689 71.1475 138.546 57.1466 149.886 28.2792C150.218 27.462 149.48 26.7 148.801 26.4198C140.784 23.1642 131.199 24.1303 122.851 25.1384C113.626 26.2567 105.04 28.1637 96.5894 32.1663C88.1056 36.1779 81.3483 41.3263 75.6892 48.8459C72.7824 52.7152 70.2509 56.8572 67.8245 61.0598C66.7447 62.93 65.6739 64.8334 64.6151 66.7157C63.8718 68.0517 62.725 69.4068 62.6432 70.9566C62.6076 71.5525 63.1373 72.3346 63.7843 72.4279C67.4284 72.9629 71.0314 72.5495 74.6893 72.6721C76.6432 72.7355 76.6287 69.7012 74.6748 69.6378C71.3 69.5105 67.9017 69.958 64.5462 69.5057C64.9296 70.0072 65.304 70.4755 65.6873 70.977C65.7456 70.002 67.5468 67.7078 68.1412 66.6782C69.1393 64.9009 70.1374 63.1236 71.1775 61.3707C73.3823 57.6004 75.6922 53.8908 78.3264 50.3965C83.7372 43.2099 90.4297 38.4163 98.5302 34.6317C106.619 30.8682 114.9 29.1494 123.706 28.1254C131.58 27.2084 140.518 26.3446 148.036 29.3962C147.671 28.7654 147.315 28.1677 146.95 27.5369C141.487 41.4177 129.63 51.4666 116.675 58.2202C103.766 64.944 89.2062 68.8937 74.6959 69.65C72.7323 69.7491 72.7467 72.7833 74.6893 72.6721Z" fill="#DBDBDB"/>
<path d="M67.8517 70.4335C81.02 60.8333 95.2024 52.8272 109.872 45.7746C115.918 42.8774 121.758 39.6089 127.705 36.5426C133.686 33.4674 140.022 30.4572 146.776 29.7335C148.692 29.5229 148.698 26.5008 146.761 26.6993C133.495 28.1176 122.135 36.5765 110.38 42.1739C95.0117 49.467 80.1054 57.7557 66.3451 67.7986C64.7866 68.9441 66.2932 71.579 67.8517 70.4335Z" fill="#DBDBDB"/>
<path d="M139.677 33.6762C126.813 44.0123 113.841 54.8747 98.2969 60.9178C96.4934 61.6136 97.264 64.5521 99.0796 63.8352C115.158 57.596 128.501 46.5277 141.821 35.8386C143.341 34.6146 141.185 32.4733 139.677 33.6762Z" fill="#DBDBDB"/>
<path d="M113.164 33.8071C104.132 37.1658 96.3235 42.4357 88.5197 47.9886C86.9402 49.122 88.4467 51.7569 90.0262 50.6235C97.5914 45.2411 105.18 40.0123 113.947 36.7245C115.771 36.0408 114.989 33.1234 113.164 33.8071Z" fill="#DBDBDB"/>
<path d="M92.3131 58.9482C88.3413 60.4375 84.2119 61.4715 80.3711 63.3166C79.6651 63.6655 79.3957 64.7147 79.7903 65.3909C80.2569 66.1366 81.1053 66.3182 81.8655 65.9726C82.8069 65.5075 83.5429 65.2039 84.4446 64.856C85.4127 64.4903 86.3897 64.1578 87.3666 63.8253C89.2753 63.1901 91.1807 62.6091 93.0715 61.9077C93.8164 61.6373 94.4157 60.8906 94.1392 60.0585C93.9556 59.3081 93.1243 58.6601 92.3131 58.9482Z" fill="#DBDBDB"/>
<path d="M250.269 46.4883C267.401 72.3013 280.697 100.879 293.918 128.862C299.67 141.027 305.005 153.471 309.179 166.288C313.044 178.223 316.335 190.985 315.786 203.611C315.534 209.627 314.683 218.665 308.125 221.274C303.22 223.221 297.184 221.246 292.386 219.856C283.915 217.371 269.972 211.164 264.103 221.377C260.923 226.93 261.602 233.735 262.819 239.778C264.486 247.939 267.295 255.821 269.454 263.815C271.538 271.576 273.726 280.397 271.562 288.376C269.352 296.467 261.404 301.941 253.103 302.004C243.548 302.058 234.866 295.521 227.497 290.163C220.555 285.083 213.51 279.064 205.178 276.487C196.66 273.873 189.211 277.561 182.992 283.331C174.767 290.924 168.758 300.627 162.023 309.484C155.25 318.406 148.076 325.822 137.849 330.721C129.972 334.493 116.808 339.098 109.9 331.173C102.423 322.58 106.092 307.747 108.894 298.011C112.482 285.531 117.689 273.542 122.514 261.525C124.431 256.736 126.302 251.937 127.921 247.063C128.356 245.724 126.951 244.526 125.734 244.574C117.108 244.935 108.276 243.659 99.9168 241.584C91.7435 239.546 81.5979 236.365 76.2524 229.332C69.9662 221.072 76.821 211.248 83.5799 205.804C92.3906 198.665 103.232 194.323 113.226 189.135C123.377 183.883 134.819 177.365 139.07 166.056C139.477 164.977 139.196 163.833 138.08 163.249C126.703 157.141 114.111 152.652 103.931 144.535C100.069 141.47 95.5452 137.114 95.9092 131.749C96.428 124.143 105.408 118.585 111.287 115.382C121.392 109.878 132.645 107.237 143.665 104.308C151.423 102.228 163.496 101.176 165.945 91.6352C166.5 89.4498 165.652 88.3628 164.349 86.7741C162.104 83.959 163.038 80.2299 163.098 76.762C163.104 74.9025 162.7 71.9463 163.758 70.2719C164.907 68.3742 168.308 67.674 170.25 67.0215C182.393 62.8178 195.002 60.278 207.416 56.9015C214.291 55.0082 221.391 53.8119 228.332 52.0766C235.728 50.2385 243.087 48.2239 250.446 46.2093C253.029 45.4911 251.712 41.5316 249.111 42.2219C235.898 45.8501 222.639 49.2272 209.249 52.1676C202.884 53.5584 196.604 55.4977 190.285 57.0187C183.967 58.5397 177.639 60.1071 171.47 62.2137C166.964 63.7331 160.571 65.0217 159.287 70.3967C158.649 73.1213 158.942 76.152 158.872 78.9413C158.821 82.3627 158.185 85.8126 160.392 88.6928C160.792 89.2317 161.89 89.9094 161.909 90.5416C162.034 93.0797 157.428 96.1983 155.579 96.8693C150.284 98.8357 144.355 99.8543 138.873 101.3C127.147 104.378 115.282 107.671 104.956 114.29C99.3933 117.847 93.1362 123.198 91.8727 130.051C90.9136 135.249 93.3744 140.017 96.8097 143.77C107.116 155.029 123.055 160.064 136.19 167.053C135.844 166.114 135.545 165.185 135.2 164.246C130.83 175.918 118.095 182.01 107.655 187.253C96.9922 192.645 85.0365 197.49 76.7024 206.367C70.8463 212.62 66.8628 221.856 71.522 229.913C76.0508 237.774 85.7327 241.708 93.9718 244.267C104.117 247.447 115.218 249.222 125.87 248.757C125.143 247.912 124.436 247.094 123.682 246.268C119.693 258.33 114.309 269.872 109.846 281.767C105.763 292.723 101.421 304.497 101.392 316.333C101.378 326.021 104.749 336.552 115.172 339.062C124.833 341.397 135.469 336.99 143.745 332.306C153.701 326.7 160.623 318.243 167.33 309.163C173.972 300.167 180.361 289.525 189.73 283.102C198.347 277.181 206.681 280.846 214.571 286.139C222.777 291.664 230.307 298.407 239.283 302.732C247.552 306.722 256.541 307.57 264.752 302.97C271.708 299.087 275.593 292.296 276.232 284.449C277.638 267.015 267.67 251.255 265.944 234.262C265.435 229.399 265.852 221.943 271.566 220.301C276.611 218.865 282.777 221.398 287.538 222.853C297.926 226.033 311.809 229.982 317.228 217.166C321.193 207.781 320.116 196.281 318.401 186.539C316.048 173.069 311.605 160.029 306.447 147.427C301.447 135.121 295.657 123.142 289.654 111.265C282.084 96.2012 274.979 80.8668 266.815 66.1191C262.668 58.6477 258.27 51.3439 253.519 44.2356C252.243 41.9031 248.76 44.2304 250.269 46.4883Z" fill="#DBDBDB"/>
<path d="M248.07 42.1116C239.85 78.8988 222.109 112.896 205.919 146.622C197.44 164.266 189.221 182.059 180.453 199.574C171.204 218.056 161.777 236.454 152.835 255.093C147.942 265.26 143.197 275.528 138.723 285.898C136.49 291.06 134.323 296.259 132.248 301.477C130.09 306.871 128.648 312.432 126.537 317.836C125.583 320.329 129.323 322.185 130.304 319.674C132.008 315.228 133.145 310.597 134.867 306.179C136.728 301.427 138.655 296.711 140.656 291.987C144.658 282.537 148.883 273.18 153.256 263.926C162.18 245.016 171.681 226.367 181.041 207.69C190.161 189.496 198.835 171.117 207.601 152.757C215.793 135.587 224.255 118.519 231.945 101.08C240.19 82.3013 247.663 63.0308 252.133 42.9448C252.779 40.2945 248.661 39.4985 248.07 42.1116Z" fill="#DBDBDB"/>
<path d="M170.767 282.347C169.789 274.612 169.015 266.822 168.437 259.022C167.774 250.19 167.166 241.2 167.878 232.376C168.042 230.33 165.772 228.984 164.241 230.613C154.088 241.351 142.333 250.416 132.366 261.312C130.547 263.294 133.721 266.053 135.54 264.071C145.507 253.175 157.261 244.109 167.415 233.371C166.205 232.768 164.968 232.183 163.778 231.608C163.029 240.618 163.544 249.71 164.226 258.691C164.814 266.686 165.597 274.671 166.603 282.629C166.923 285.279 171.105 285.024 170.767 282.347Z" fill="#DBDBDB"/>
<path d="M221.828 265.763C203.74 240.267 198.324 209.971 193.549 179.731C193.371 178.56 192.132 177.25 190.804 177.856C170.629 187.347 150.044 195.863 129.803 205.197C127.36 206.305 128.667 210.311 131.138 209.184C151.378 199.85 171.964 191.335 192.139 181.843C191.227 181.202 190.306 180.608 189.394 179.967C194.301 210.886 199.848 241.981 218.374 268.071C219.892 270.283 223.393 267.983 221.828 265.763Z" fill="#DBDBDB"/>
<path d="M249.942 205.315C233.447 182.383 226.11 154.098 219.09 127.133C218.753 125.785 217.005 125.34 215.947 126.048C197.588 138.076 175.472 142.614 157.122 154.595C154.875 156.057 157.176 159.56 159.451 158.08C177.782 146.07 199.917 141.56 218.275 129.532C217.234 129.18 216.174 128.8 215.132 128.447C222.273 155.775 229.76 184.404 246.46 207.642C248.034 209.816 251.516 207.489 249.942 205.315Z" fill="#DBDBDB"/>
<path d="M269.651 156.533C260.719 131.047 248.489 106.959 238.563 81.856C238.18 80.8615 236.989 80.0444 235.902 80.5288C216.878 88.8479 195.228 87.872 176.55 97.2507C174.135 98.4614 176.491 101.927 178.878 100.735C197.158 91.5427 218.557 92.6862 237.219 84.4883C236.316 84.0428 235.461 83.6066 234.558 83.1612C244.494 108.218 256.715 132.352 265.647 157.838C266.543 160.385 270.529 159.051 269.651 156.533Z" fill="#DBDBDB"/>
</svg>
